# xmcd
#
# Track frame offsets: 
#        150
#        12880
#        25517
#        38154
#        50953
#        63808
#        76328
#        88997
#        104339
#        119681
#        135023
#        150365
#        161947
#        173634
#        185321
#        195738
#        206155
#        217390
#        228625
#        239989
#        255507
#        266958
#        277128
#        287537
#        298799
#        314221
#        325804
#        338441
#
# Disc length: 4670 seconds
#
# Revision: 0
# Processed by: cddbd v1.5.2PL0 Copyright (c) Steve Scherf et al.
# Submitted via: ExactAudioCopy v0.95b3
#
DISCID=af123c1c
DTITLE=The Beatles  - Rubber Soul Recording Sessions Reconstructed - D
DTITLE=isc 4
DYEAR=1900
DGENRE=
TTITLE0=The Word - Take 3
TTITLE1=The Word - SI onto take 3
TTITLE2=The Word - SI onto take 3
TTITLE3=Im Looking Through You - Take 4
TTITLE4=Im Looking Through You - SI onto take 4
TTITLE5=The Word - Mono mix
TTITLE6=The Word - Stereo mix RS1 from the US album
TTITLE7=You Wont See Me - Take 2
TTITLE8=You Wont See Me - SI onto take 2
TTITLE9=You Won t See Me - SI onto take 2
TTITLE10=You Wont See Me - SI onto take 2
TTITLE11=Girl - Take 2
TTITLE12=Girl - SI onto take 2
TTITLE13=Girl - SI onto take 2
TTITLE14=Wait - Take 4
TTITLE15=Wait - SI onto take 4
TTITLE16=Im Looking Through You - SI onto take 4
TTITLE17=Im Looking Through You - SI onto take 4
TTITLE18=Im Looking Through You - Mono mix
TTITLE19=You Wont See Me - Mono mix
TTITLE20=Girl - Mono mix
TTITLE21=Wait - Mono mix
TTITLE22=Wait - Stereo mix
TTITLE23=Im Looking Through You - Stereo mix
TTITLE24=You Wont See Me - Stereo mix
TTITLE25=Girl - Stereo mix
TTITLE26=The Word - Stereo mix RS2
TTITLE27=Michelle - Mono mix RM2
EXTD=
EXTT0=
EXTT1=
EXTT2=
EXTT3=
EXTT4=
EXTT5=
EXTT6=
EXTT7=
EXTT8=
EXTT9=
EXTT10=
EXTT11=
EXTT12=
EXTT13=
EXTT14=
EXTT15=
EXTT16=
EXTT17=
EXTT18=
EXTT19=
EXTT20=
EXTT21=
EXTT22=
EXTT23=
EXTT24=
EXTT25=
EXTT26=
EXTT27=
PLAYORDER=
